<?xml version="1.0" standalone="no"?>
<!DOCTYPE svg PUBLIC "-//W3C//DTD SVG 20010904//EN"
 "http://www.w3.org/TR/2001/REC-SVG-20010904/DTD/svg10.dtd">
<svg version="1.0" xmlns="http://www.w3.org/2000/svg"
 width="917.000000pt" height="917.000000pt" viewBox="0 0 917.000000 917.000000"
 preserveAspectRatio="xMidYMid meet">
<metadata>
Created by potrace 1.14, written by Peter Selinger 2001-2017
</metadata>
<g transform="translate(0.000000,917.000000) scale(0.100000,-0.100000)"
fill="#000000" stroke="none">
<path d="M860 5915 c0 -7 -143 -10 -430 -9 l-430 1 0 -1302 0 -1302 403 -1
c221 -1 407 -3 412 -3 6 -1 14 -1 19 0 5 1 70 4 145 6 75 3 153 9 173 14 20 5
39 6 42 3 4 -3 6 -1 6 5 0 5 16 9 35 8 19 -1 35 1 35 5 0 4 6 7 13 8 14 1 52
10 52 12 0 1 11 4 25 6 13 3 29 9 34 14 6 6 16 10 24 10 34 0 245 106 291 147
13 12 28 20 32 18 4 -3 9 2 13 10 3 8 13 15 21 15 9 0 13 5 10 10 -3 6 -2 10
3 10 6 0 33 23 61 50 28 28 56 50 62 50 5 0 8 4 5 9 -4 5 -3 11 1 13 13 5 105
118 97 118 -4 0 1 7 12 15 10 8 16 15 12 15 -5 0 1 9 12 20 12 12 18 25 15 30
-4 6 -1 10 5 10 10 0 35 48 32 63 -1 4 2 7 7 7 7 0 27 39 35 70 1 3 7 14 13
25 6 11 9 28 8 37 -2 10 2 16 7 15 6 -1 12 7 13 18 2 11 8 34 13 52 6 17 8 34
4 37 -3 3 -1 6 5 6 6 0 10 12 11 28 0 15 1 29 2 32 15 41 21 112 24 275 2 107
0 165 -8 174 -9 12 -8 13 3 6 11 -6 12 -5 5 6 -9 15 -13 39 -17 101 -1 21 -6
38 -11 38 -4 0 -6 7 -3 15 4 8 1 17 -4 21 -6 3 -9 15 -6 25 3 11 0 19 -6 19
-6 0 -8 3 -5 6 4 3 -2 24 -12 47 -10 23 -16 45 -14 49 3 4 0 8 -5 8 -6 0 -11
9 -11 20 0 11 -4 20 -9 20 -5 0 -12 16 -15 35 -4 19 -11 35 -17 35 -6 0 -7 5
-4 10 3 6 1 10 -4 10 -6 0 -11 5 -11 11 0 6 -13 30 -30 53 -16 24 -26 46 -23
50 4 3 -1 6 -11 6 -9 0 -15 4 -12 9 3 4 -6 21 -19 37 -14 16 -25 35 -25 43 0
8 -3 12 -6 9 -7 -7 -74 59 -74 72 0 6 -4 10 -10 10 -5 0 -27 18 -49 39 -24 23
-42 34 -45 28 -2 -7 -5 -4 -5 6 -1 9 -6 17 -11 17 -16 0 -90 57 -83 64 3 3 -2
6 -12 6 -10 0 -40 14 -67 30 -26 17 -55 30 -62 30 -8 0 -16 5 -18 10 -2 6 -12
12 -23 14 -18 3 -55 18 -121 49 -12 5 -35 10 -52 10 -17 1 -28 5 -26 9 3 5 -9
8 -25 8 -17 0 -31 3 -31 8 0 6 -47 12 -117 15 -13 1 -23 4 -23 7 0 5 -93 12
-185 14 -27 0 -53 5 -57 11 -5 7 -8 7 -8 0z m-304 -385 c21 5 34 4 34 -2 0 -6
5 -7 13 -2 11 8 32 10 47 4 16 -6 50 -6 50 1 0 9 26 6 36 -4 4 -4 13 -2 20 4
8 7 14 7 19 -1 5 -8 11 -8 21 1 8 6 14 8 14 3 0 -5 37 -10 83 -10 109 -2 150
-6 164 -16 7 -5 14 -5 18 2 5 8 11 8 21 -1 7 -6 20 -9 28 -6 7 3 25 -1 40 -8
15 -8 28 -13 29 -13 6 5 98 -26 103 -33 3 -5 14 -9 25 -9 10 0 19 -4 19 -10 0
-5 6 -10 13 -10 8 0 24 -9 37 -20 12 -11 27 -17 31 -14 5 3 12 -2 15 -10 3 -9
11 -16 16 -16 15 0 68 -47 61 -54 -4 -3 1 -6 11 -6 10 0 14 -5 10 -12 -4 -7
-3 -8 4 -4 6 4 19 -3 29 -14 10 -12 26 -31 36 -43 10 -12 26 -34 35 -49 9 -16
20 -28 24 -28 4 0 8 -7 8 -15 0 -8 5 -15 11 -15 5 0 8 -4 5 -9 -4 -5 -3 -11 2
-13 10 -4 57 -100 54 -110 -1 -5 2 -8 7 -8 4 0 7 -11 6 -25 -2 -14 1 -23 6
-19 5 3 10 -2 10 -10 2 -18 5 -35 9 -38 1 -2 4 -16 6 -33 6 -43 11 -70 14 -70
2 0 6 -28 11 -90 1 -22 8 -46 13 -54 8 -11 8 -13 0 -8 -8 4 -11 -17 -10 -69 1
-42 -2 -78 -5 -80 -4 -2 -5 -15 -4 -29 2 -14 0 -25 -5 -25 -5 0 -7 -8 -6 -17
2 -15 -9 -75 -23 -120 -1 -2 -1 -6 -2 -10 0 -5 -5 -14 -11 -20 -6 -7 -8 -13
-4 -13 4 0 -3 -18 -14 -40 -11 -22 -17 -40 -13 -40 5 0 4 -4 -2 -8 -5 -4 -21
-27 -34 -52 -33 -61 -90 -140 -102 -140 -6 0 -8 -4 -4 -9 3 -5 -3 -12 -12 -15
-10 -3 -27 -19 -38 -35 -10 -16 -23 -27 -27 -25 -5 3 -11 -2 -14 -10 -3 -9
-12 -16 -20 -16 -7 0 -17 -6 -21 -13 -9 -15 -63 -50 -63 -42 0 4 -7 -1 -16 -9
-8 -9 -20 -14 -25 -11 -5 4 -9 2 -9 -3 0 -8 -14 -15 -43 -20 -4 -1 -21 -9 -37
-17 -17 -9 -30 -13 -30 -9 0 4 -6 2 -12 -4 -7 -6 -29 -13 -48 -16 -19 -3 -48
-9 -65 -12 -16 -3 -46 -7 -65 -9 -19 -2 -35 -4 -35 -5 0 -3 -217 -11 -343 -13
-76 -1 -122 2 -122 8 0 6 -3 5 -8 -1 -7 -11 -23 -11 -60 0 -16 5 -20 15 -18
46 0 22 -3 40 -9 41 -7 0 -7 2 0 5 11 5 12 494 1 513 -4 6 -4 11 1 11 4 0 7
273 7 607 l-2 608 22 12 c11 6 27 8 35 3 7 -4 29 -4 47 0z"/>
<path d="M3040 5913 c0 -6 -11 -8 -24 -6 -13 3 -27 -1 -31 -8 -5 -7 -4 -10 3
-5 6 3 13 -3 17 -14 3 -11 11 -20 16 -20 6 0 8 -4 4 -9 -3 -5 1 -16 9 -23 7
-8 22 -32 33 -54 28 -57 47 -88 58 -96 7 -5 7 -8 0 -8 -6 0 -6 -3 1 -8 6 -4
24 -32 40 -62 16 -30 31 -57 35 -60 3 -3 12 -20 20 -37 8 -18 17 -33 21 -33 5
0 8 -6 8 -14 0 -7 7 -19 15 -26 8 -7 12 -16 9 -21 -3 -5 -1 -9 5 -9 9 0 27
-40 22 -48 -1 -2 7 -12 18 -21 12 -10 21 -26 21 -35 0 -9 4 -16 8 -16 5 0 19
-22 32 -50 13 -27 27 -50 32 -50 4 0 8 -7 8 -15 0 -8 9 -24 20 -35 12 -12 18
-25 15 -30 -4 -6 -1 -10 4 -10 6 0 11 -6 11 -14 0 -8 3 -16 8 -18 4 -1 18 -23
31 -48 14 -25 36 -63 49 -85 14 -22 24 -40 21 -41 -2 0 8 -17 24 -37 15 -19
27 -43 27 -51 0 -9 3 -16 8 -16 4 0 22 -29 41 -65 19 -35 41 -72 50 -82 9 -10
17 -27 19 -37 2 -10 10 -25 18 -33 8 -8 17 -25 20 -39 3 -13 9 -24 13 -24 8 0
36 -55 29 -55 -1 0 3 -7 10 -15 17 -20 82 -130 82 -140 0 -4 7 -13 15 -20 8
-7 15 -21 15 -31 0 -11 5 -19 10 -19 10 0 35 -48 32 -62 -1 -5 5 -8 15 -8 9 0
13 -3 10 -6 -4 -4 1 -19 11 -33 10 -14 24 -39 32 -56 8 -16 17 -32 20 -35 3
-3 11 -15 18 -27 6 -13 18 -33 25 -45 6 -13 14 -25 17 -28 3 -3 18 -30 34 -60
16 -30 36 -63 44 -72 8 -10 12 -18 8 -18 -4 0 0 -7 8 -16 9 -8 14 -20 11 -25
-4 -5 2 -9 11 -9 10 0 14 -3 11 -7 -4 -3 1 -15 10 -26 13 -15 14 -19 3 -13 -8
4 -6 0 4 -8 11 -9 16 -16 11 -16 -4 0 0 -9 10 -20 10 -11 15 -20 11 -20 -4 0
-1 -7 6 -15 29 -32 38 -45 33 -45 -3 0 8 -20 25 -44 16 -25 30 -49 30 -55 0
-6 5 -11 11 -11 5 0 7 -4 4 -10 -3 -5 -1 -10 5 -10 6 0 8 -4 5 -10 -3 -5 -2
-10 3 -10 5 0 17 -16 26 -35 10 -20 21 -33 26 -30 5 3 12 0 16 -6 4 -8 3 -9
-4 -5 -7 4 -12 2 -12 -3 0 -6 3 -11 8 -11 11 0 37 19 37 27 2 20 17 53 25 53
7 0 22 31 23 50 1 3 9 14 19 24 10 11 18 26 18 33 0 7 5 13 11 13 5 0 8 4 5 9
-3 5 1 14 9 21 8 7 15 19 15 26 0 8 5 14 11 14 5 0 8 4 4 9 -3 6 2 14 11 19 9
5 15 11 13 13 -4 8 13 49 21 49 8 0 20 27 19 43 0 5 9 17 20 26 11 10 18 21
14 25 -3 3 -1 6 6 6 7 0 10 4 7 9 -3 5 1 14 9 21 8 7 13 16 10 20 -3 4 2 10
10 14 8 3 15 12 15 21 0 8 5 15 11 15 5 0 7 5 4 10 -3 6 -1 10 4 10 6 0 10 3
9 8 -2 10 35 72 44 72 4 0 4 7 1 17 -4 11 -3 14 5 9 7 -4 12 -1 12 8 0 9 5 16
12 16 6 0 8 3 5 6 -4 4 2 19 13 34 11 16 20 33 20 39 0 6 5 11 10 11 6 0 10 5
10 11 0 6 9 24 21 40 11 16 17 29 14 29 -4 0 0 7 7 15 33 36 39 46 33 55 -3 6
-1 10 5 10 6 0 8 5 5 10 -3 6 -1 10 5 10 6 0 16 14 21 30 6 17 16 30 22 30 6
0 8 3 4 6 -3 4 1 13 9 21 8 8 12 19 9 24 -4 5 -2 9 4 9 5 0 13 9 16 20 4 11
11 18 16 14 5 -3 8 -2 7 3 -4 14 13 53 23 53 6 0 8 4 4 9 -3 5 -1 12 5 16 6 4
8 11 5 16 -4 5 -2 9 4 9 5 0 20 20 32 45 12 25 27 45 32 45 6 0 7 3 4 6 -4 4
2 19 13 34 11 15 24 38 30 51 10 24 20 41 53 91 10 16 15 28 10 28 -4 0 0 5 9
11 11 6 15 16 11 26 -4 9 -2 14 3 11 5 -4 18 11 28 33 11 21 23 39 28 39 5 0
6 5 3 10 -3 6 -1 10 6 10 7 0 9 3 6 6 -3 4 3 18 13 32 11 13 20 30 20 37 0 6
9 20 20 30 11 10 20 21 20 25 0 18 98 169 105 162 5 -4 5 -1 1 6 -4 7 2 25 14
42 12 17 18 30 13 30 -4 0 -3 4 3 8 7 4 20 23 31 42 11 19 37 67 58 105 21 39
44 73 49 77 6 4 7 8 3 8 -5 0 -1 7 7 16 9 8 14 19 11 24 -3 4 2 11 11 14 8 3
12 10 9 16 -3 6 1 13 9 16 9 3 14 10 11 14 -3 4 2 13 10 20 8 7 12 16 9 21 -3
5 -1 9 5 9 5 0 13 10 17 22 3 12 15 30 25 41 10 11 16 24 13 28 -2 4 1 11 8
16 7 4 18 17 25 29 10 19 9 21 -10 20 -12 -1 -33 1 -47 4 -14 4 -36 4 -50 0
-14 -4 -34 -4 -45 0 -11 4 -29 4 -40 0 -11 -4 -30 -4 -42 1 -13 5 -25 4 -29
-2 -4 -6 -11 -6 -20 2 -8 6 -14 7 -14 2 0 -6 -18 -7 -44 -3 -25 4 -52 3 -60
-2 -10 -6 -16 -5 -16 2 0 6 -5 8 -11 5 -17 -11 -89 -11 -89 0 0 5 -4 5 -10 -1
-7 -7 -29 -8 -55 -4 -25 4 -45 4 -45 1 0 -3 -286 -6 -635 -7 -448 0 -635 3
-635 10 0 8 -3 8 -8 0 -8 -12 -542 -14 -542 -2 0 4 -11 3 -25 -2 -17 -7 -25
-6 -25 1 0 8 -4 8 -12 1 -20 -16 -22 -16 -45 -3 -13 6 -23 8 -23 4 0 -9 -143
-8 -166 1 -8 3 -14 2 -14 -2 0 -8 -146 -6 -167 2 -7 3 -15 1 -19 -5 -4 -6 -11
-6 -20 2 -8 6 -14 7 -14 2z m2110 -416 c0 -5 5 -5 12 -1 14 9 91 6 136 -5 2
-1 0 -7 -5 -13 -4 -7 -8 -18 -9 -25 -1 -7 -12 -26 -24 -43 -12 -16 -18 -30
-15 -30 4 0 -1 -7 -9 -16 -9 -8 -16 -21 -16 -29 0 -7 -4 -15 -9 -17 -5 -1 -11
-9 -13 -17 -2 -8 -11 -23 -20 -33 -10 -10 -18 -25 -18 -33 0 -8 -4 -15 -9 -15
-5 0 -12 -8 -16 -19 -6 -20 -53 -106 -85 -156 -11 -16 -27 -47 -37 -67 -10
-21 -21 -38 -25 -38 -5 0 -8 -7 -8 -15 0 -8 -5 -15 -11 -15 -5 0 -7 -4 -4 -10
3 -5 1 -10 -5 -10 -6 0 -8 -4 -5 -10 3 -5 1 -10 -4 -10 -6 0 -11 -7 -11 -15 0
-8 -3 -15 -8 -15 -4 0 -13 -15 -21 -32 -8 -18 -22 -44 -33 -57 -10 -13 -15
-28 -11 -35 3 -6 3 -8 -2 -4 -5 5 -14 -2 -21 -15 -22 -38 -37 -72 -36 -79 1
-5 -3 -8 -8 -8 -6 0 -10 -7 -10 -15 0 -8 -4 -15 -10 -15 -5 0 -10 -5 -10 -11
0 -6 -9 -22 -20 -36 -11 -14 -17 -29 -14 -34 3 -5 0 -9 -6 -9 -6 0 -14 -10
-19 -22 -5 -13 -21 -40 -35 -61 -14 -21 -26 -42 -26 -47 0 -5 -6 -15 -12 -22
-7 -7 -24 -33 -37 -58 -13 -25 -30 -52 -36 -60 -7 -8 -20 -30 -29 -48 -15 -29
-19 -32 -34 -20 -13 11 -14 11 -7 -1 6 -10 4 -12 -4 -6 -7 4 -21 27 -31 51
-11 24 -25 44 -31 44 -7 0 -10 3 -6 6 3 3 -10 30 -29 59 -19 30 -34 59 -34 65
0 5 -3 10 -8 10 -4 0 -16 17 -27 38 -11 20 -22 39 -25 42 -6 6 -23 36 -52 91
-11 21 -24 42 -29 45 -5 3 -7 10 -4 15 4 5 2 9 -4 9 -5 0 -13 10 -16 23 -4 12
-18 37 -32 55 -13 17 -21 32 -18 32 4 0 -1 7 -9 16 -9 8 -16 22 -16 29 0 8 -6
18 -12 22 -7 4 -21 24 -30 43 -25 50 -53 97 -69 116 -8 10 -14 20 -13 23 2 9
-48 85 -57 89 -4 2 -5 10 -2 18 3 7 -2 17 -11 20 -9 3 -16 14 -16 23 0 10 -9
27 -20 39 -11 12 -20 26 -20 31 0 6 -13 32 -30 58 -16 26 -30 53 -30 60 0 7
-4 13 -10 13 -5 0 -10 7 -10 15 0 8 -5 15 -11 15 -5 0 -8 4 -5 9 3 5 -1 14 -9
21 -8 7 -15 18 -15 25 0 8 -5 15 -10 17 -6 2 -12 13 -13 26 0 12 -6 22 -11 22
-26 0 13 19 44 22 78 7 1390 2 1390 -5z"/>
<path d="M6940 5910 c0 -4 -15 -6 -32 -6 -32 1 -33 0 -34 -45 0 -25 -4 -51 -8
-58 -4 -6 -4 -11 1 -11 4 0 8 -25 8 -55 0 -30 -4 -55 -10 -55 -7 0 -7 -3 0 -8
12 -9 14 -442 2 -442 -5 0 -5 -5 -2 -10 10 -16 11 -220 2 -220 -5 0 -5 -5 -1
-11 4 -6 7 -387 7 -845 l0 -834 21 -5 c36 -8 176 -10 176 -3 0 4 10 5 23 3 27
-6 177 -8 197 -3 23 5 30 20 24 51 -3 20 -1 26 7 21 8 -5 9 -3 4 7 -12 18 -14
89 -3 95 5 3 5 11 1 17 -13 21 -14 49 -1 41 7 -5 8 -3 3 6 -11 18 -13 130 -3
136 5 3 5 11 1 17 -13 20 -12 41 0 49 7 4 8 8 2 8 -14 0 -17 277 -4 286 6 3
61 5 122 4 162 -3 1170 -3 1182 0 6 1 24 2 41 1 l31 -1 -1 -110 c-1 -61 3
-110 8 -110 4 0 4 -6 -1 -12 -8 -11 -10 -82 -3 -98 1 -3 1 -9 0 -15 -8 -35 -4
-285 5 -285 5 0 4 -4 -3 -9 -13 -8 -13 -84 1 -97 6 -7 211 -6 246 1 12 2 21
-1 21 -6 0 -6 5 -7 12 -3 6 4 40 7 75 6 39 -1 61 3 58 8 -4 6 2 10 12 11 10 0
14 2 8 5 -6 2 -8 44 -5 109 3 58 2 117 -1 130 -4 13 -4 26 -1 29 7 7 5 213 -3
225 -3 5 -1 12 5 16 6 4 8 11 4 16 -7 11 -7 859 0 866 2 3 1 16 -4 29 -6 16
-6 24 1 24 6 0 7 5 3 11 -9 15 -8 364 0 378 4 6 4 11 -1 11 -12 0 -10 403 2
412 7 5 7 8 0 8 -6 0 -9 57 -8 155 1 87 -3 156 -8 156 -5 1 -18 2 -28 3 -11 0
-22 4 -26 8 -4 4 -18 3 -31 -2 -17 -7 -24 -6 -24 3 0 7 -3 8 -8 2 -4 -5 -20
-10 -37 -10 -16 0 -33 5 -37 10 -5 6 -8 6 -8 -1 0 -8 -13 -9 -40 -4 -27 5 -40
4 -40 -4 0 -7 -3 -7 -8 -1 -9 13 -122 11 -130 -2 -4 -6 -7 -163 -6 -349 0
-253 -2 -342 -11 -351 -7 -7 -15 -9 -19 -6 -3 4 -25 6 -49 5 -23 -1 -62 -2
-87 -1 -25 0 -49 1 -55 0 -73 -3 -176 -2 -184 3 -5 4 -12 2 -15 -3 -4 -6 -18
-6 -36 -1 -17 5 -30 5 -30 1 0 -4 -13 -7 -30 -6 -16 0 -30 4 -30 8 0 5 -5 5
-11 1 -13 -8 -315 -8 -328 0 -5 4 -12 2 -16 -4 -4 -6 -10 -8 -14 -6 -6 4 -167
7 -221 5 -8 -1 -44 -1 -80 0 -36 1 -84 0 -108 -1 -23 -2 -42 1 -42 5 0 5 -4 6
-8 3 -4 -2 -9 10 -10 29 -2 18 2 36 8 40 6 3 7 12 3 18 -12 18 -10 97 2 97 7
0 7 3 0 8 -16 11 -17 33 -3 50 8 10 8 13 1 9 -8 -5 -11 19 -10 88 1 52 6 95
11 95 5 0 3 6 -3 14 -9 10 -9 16 -1 21 7 4 7 11 2 18 -9 13 -9 74 1 84 4 3 2
12 -4 19 -6 7 -6 14 0 18 5 3 7 15 4 26 -3 11 -10 17 -16 13 -6 -4 -7 -1 -1 8
24 39 15 45 -70 48 -33 1 -63 4 -68 7 -4 3 -8 -1 -8 -8 0 -9 -3 -9 -10 2 -6
10 -10 11 -10 3 0 -9 -7 -10 -25 -3 -14 5 -25 6 -25 2 0 -4 -27 -7 -60 -7 -33
0 -60 3 -60 6 0 3 -7 6 -15 6 -8 0 -15 -3 -15 -7z m917 -1115 c249 0 383 -4
383 -10 0 -6 3 -6 8 1 9 14 224 14 234 -1 5 -6 8 -6 8 2 0 8 29 11 99 10 55 0
97 -5 95 -9 -3 -4 -1 -8 4 -8 5 0 8 -57 7 -127 -1 -71 3 -137 8 -148 5 -11 6
-17 2 -13 -4 4 -13 2 -19 -5 -9 -9 -85 -12 -284 -12 -150 0 -272 -4 -272 -8 0
-4 -8 -3 -18 2 -13 7 -23 6 -30 -1 -8 -8 -12 -8 -12 -2 0 6 -7 11 -15 11 -8 0
-15 -5 -15 -11 0 -6 -4 -5 -9 2 -4 8 -12 14 -16 14 -4 0 -12 -6 -16 -14 -5 -7
-9 -8 -9 -2 0 6 -7 11 -15 11 -8 0 -15 -5 -15 -11 0 -7 -3 -7 -8 -1 -4 6 -74
10 -174 10 -108 0 -164 -3 -160 -10 3 -5 -2 -4 -11 4 -13 10 -20 11 -30 2 -8
-6 -17 -8 -21 -3 -4 4 -60 7 -123 7 -114 0 -116 1 -120 23 -1 13 1 21 5 18 5
-3 7 5 6 17 -1 12 -3 22 -4 22 -2 0 -4 10 -5 23 -1 12 2 22 7 22 5 0 6 5 2 12
-12 19 -11 98 0 98 6 0 5 4 -2 8 -7 5 -10 19 -8 33 3 13 5 30 5 38 1 9 9 12
26 9 14 -3 27 -2 30 2 2 3 26 4 52 1 26 -3 220 -6 430 -6z"/>
</g>
</svg>
